# xmcd
#
# Track frame offsets:
#	150
#	15791
#	31189
#	49719
#	66809
#	86452
#	105058
#	129723
#	145965
#	162539
#	182079
#	200195
#	217820
#	234959
#	249484
#	263357
#	283126
#
# Disc length: 3984
#
# Revision: 2
# Processed by: cddbd v1.5.1PL0 Copyright (c) Steve Scherf et al.
# Submitted via: VOLTOCDX V1.0.24 
# Normalized: r1:TSWAP
#
DISCID=df0f8e11
DTITLE=Various Artist - Music Maestro Country Hits IV - Disc 4
DYEAR=2004
DGENRE=Karaoke
TTITLE0=Toby Keith - Angry American
TTITLE1=Shedaisy - Get Over Yourself
TTITLE2=Blake Shelton - The Baby
TTITLE3=Lonestar - My Front Porch Looking In
TTITLE4=Keith Urban - Raining On Sunday
TTITLE5=Leanne Rimes - Suddenly
TTITLE6=Bob Carlisle - Butterfly Kisses
TTITLE7=Mark Wills - Nineteen Somethin'
TTITLE8=Elvis VS Jxl - A Little Less Conversation
TTITLE9=Trace Adkins - Then They Do
TTITLE10=Pat Green - Wave On Wave
TTITLE11=Keith Urban - Somebody Like You
TTITLE12=Gary Allan - Man To Man
TTITLE13=Toby Keith - Who's Your Daddy
TTITLE14=Emerson Drive - Fall Into Me
TTITLE15=Montgomery Gentry - Hell Yeah
TTITLE16=Toby Keith - Willie Nelson - Beer For My Horses
EXTD=
EXTT0=
EXTT1=
EXTT2=
EXTT3=
EXTT4=
EXTT5=
EXTT6=
EXTT7=
EXTT8=
EXTT9=
EXTT10=
EXTT11=
EXTT12=
EXTT13=
EXTT14=
EXTT15=
EXTT16=
PLAYORDER=
